<svg width="367" height="39" viewBox="0 0 367 39" fill="none" xmlns="http://www.w3.org/2000/svg">
<g clip-path="url(#clip0_10_427)">
<path d="M10.8767 39.0001C11.609 38.9996 12.3281 38.8007 12.9617 38.4235C13.5953 38.0464 14.1209 37.5043 14.4854 36.8519L22.0943 23.3485C22.3534 22.8874 22.7249 22.5034 23.1722 22.2344C23.6195 21.9653 24.1272 21.8205 24.6455 21.8141L30.4381 21.7588C31.8813 21.746 33.303 21.3977 34.5965 20.74L35.436 20.3134C35.5891 20.2387 35.7185 20.1209 35.8091 19.9737C35.8997 19.8264 35.9478 19.6559 35.9478 19.4817C35.9478 19.3075 35.8997 19.1369 35.8091 18.9897C35.7185 18.8425 35.5891 18.7247 35.436 18.65L34.5965 18.2234C33.3024 17.5674 31.8811 17.2191 30.4381 17.2045L24.6515 17.1677C24.1328 17.1631 23.6244 17.019 23.1768 16.7498C22.7292 16.4806 22.358 16.0956 22.1003 15.6332L14.4914 2.12994C14.1255 1.47879 13.5996 0.937684 12.9663 0.560706C12.333 0.183728 11.6146 -0.0159262 10.8827 -0.0183105C13.9836 5.8587 15.7491 13.1934 16.3974 16.247C16.418 16.3447 16.417 16.4459 16.3943 16.5431C16.3717 16.6403 16.3281 16.731 16.2667 16.8085C16.2053 16.8861 16.1277 16.9484 16.0396 16.9909C15.9516 17.0334 15.8554 17.0551 15.7581 17.0542L15.4414 15.799C15.3677 15.505 15.1884 15.2504 14.9396 15.0865C14.6909 14.9226 14.391 14.8614 14.1001 14.9151L12.4749 15.222C12.2558 15.2645 12.0563 15.3799 11.9073 15.5504C11.7502 15.7263 11.5395 15.8421 11.3099 15.8788L10.7124 15.9708L11.3696 16.0905C11.5722 16.1268 11.759 16.2265 11.9043 16.3759L12.1523 16.6306L12.5556 17.0296H11.3278C10.5385 17.0203 9.75139 17.1152 8.98567 17.312L5.13494 18.3001L3.59046 14.0313C3.43024 13.587 3.12844 13.2115 2.73413 12.9658C2.33982 12.72 1.87619 12.6186 1.41863 12.6779L-0.00634766 12.862L2.24614 19.052L1.17367 19.3282C1.13553 19.3373 1.10152 19.3594 1.07716 19.3909C1.05281 19.4224 1.03955 19.4614 1.03955 19.5016C1.03955 19.5419 1.05281 19.5809 1.07716 19.6124C1.10152 19.6439 1.13553 19.6659 1.17367 19.675L2.24614 19.9482L-0.000376173 26.1259L1.43655 26.3131C1.89134 26.372 2.35219 26.272 2.74501 26.0294C3.13783 25.7867 3.4398 25.4153 3.60241 24.9751L5.18273 20.7001L8.99165 21.676C9.75653 21.872 10.5425 21.9679 11.3308 21.9614H12.5616L12.1583 22.3604L11.9103 22.612C11.7652 22.7624 11.5785 22.8632 11.3756 22.9005L10.7184 23.0171L11.3158 23.1092C11.5462 23.1457 11.7572 23.2628 11.9133 23.4406C12.0617 23.6113 12.2616 23.7258 12.4809 23.7659L14.106 24.0728C14.3969 24.1258 14.6964 24.0643 14.945 23.9005C15.1936 23.7367 15.373 23.4826 15.4474 23.189L15.764 21.9338C15.8613 21.9329 15.9576 21.9545 16.0456 21.997C16.1337 22.0395 16.2113 22.1019 16.2727 22.1794C16.3341 22.2569 16.3777 22.3476 16.4003 22.4448C16.4229 22.542 16.424 22.6432 16.4033 22.7409C15.7431 25.7883 13.9776 33.1262 10.8767 39.0001Z" fill="black"/>
<path d="M47.3558 19.9266H44.3684C44.1307 19.9266 43.9027 19.8296 43.7347 19.6569C43.5666 19.4842 43.4722 19.2501 43.4722 19.0059C43.4722 18.7617 43.5666 18.5275 43.7347 18.3549C43.9027 18.1822 44.1307 18.0852 44.3684 18.0852H47.3558C47.5935 18.0852 47.8214 18.1822 47.9895 18.3549C48.1576 18.5275 48.252 18.7617 48.252 19.0059C48.252 19.2501 48.1576 19.4842 47.9895 19.6569C47.8214 19.8296 47.5935 19.9266 47.3558 19.9266Z" fill="black"/>
<path d="M357.148 19.9266H351.191C350.953 19.9266 350.725 19.8296 350.557 19.6569C350.389 19.4842 350.295 19.2501 350.295 19.0059C350.295 18.7617 350.389 18.5275 350.557 18.3549C350.725 18.1822 350.953 18.0852 351.191 18.0852L357.148 18.0852C357.385 18.0852 357.613 18.1822 357.781 18.3549C357.949 18.5275 358.044 18.7617 358.044 19.0059C358.044 19.2501 357.949 19.4842 357.781 19.6569C357.613 19.8296 357.385 19.9266 357.148 19.9266ZM345.234 19.9266H339.277C339.039 19.9266 338.811 19.8296 338.643 19.6569C338.475 19.4842 338.381 19.2501 338.381 19.0059C338.381 18.7617 338.475 18.5275 338.643 18.3549C338.811 18.1822 339.039 18.0852 339.277 18.0852H345.234C345.472 18.0852 345.7 18.1822 345.868 18.3549C346.036 18.5275 346.13 18.7617 346.13 19.0059C346.13 19.2501 346.036 19.4842 345.868 19.6569C345.7 19.8296 345.472 19.9266 345.234 19.9266ZM333.317 19.9266H327.36C327.123 19.9266 326.895 19.8296 326.727 19.6569C326.559 19.4842 326.464 19.2501 326.464 19.0059C326.464 18.7617 326.559 18.5275 326.727 18.3549C326.895 18.1822 327.123 18.0852 327.36 18.0852L333.317 18.0852C333.555 18.0852 333.783 18.1822 333.951 18.3549C334.119 18.5275 334.213 18.7617 334.213 19.0059C334.213 19.2501 334.119 19.4842 333.951 19.6569C333.783 19.8296 333.555 19.9266 333.317 19.9266ZM321.404 19.9266H315.429C315.191 19.9266 314.963 19.8296 314.795 19.6569C314.627 19.4842 314.533 19.2501 314.533 19.0059C314.533 18.7617 314.627 18.5275 314.795 18.3549C314.963 18.1822 315.191 18.0852 315.429 18.0852H321.404C321.641 18.0852 321.869 18.1822 322.037 18.3549C322.205 18.5275 322.3 18.7617 322.3 19.0059C322.3 19.2501 322.205 19.4842 322.037 19.6569C321.869 19.8296 321.641 19.9266 321.404 19.9266ZM309.487 19.9266H303.53C303.292 19.9266 303.064 19.8296 302.896 19.6569C302.728 19.4842 302.634 19.2501 302.634 19.0059C302.634 18.7617 302.728 18.5275 302.896 18.3549C303.064 18.1822 303.292 18.0852 303.53 18.0852H309.487C309.725 18.0852 309.953 18.1822 310.121 18.3549C310.289 18.5275 310.383 18.7617 310.383 19.0059C310.383 19.2501 310.289 19.4842 310.121 19.6569C309.953 19.8296 309.725 19.9266 309.487 19.9266ZM297.57 19.9266H291.613C291.376 19.9266 291.148 19.8296 290.98 19.6569C290.812 19.4842 290.717 19.2501 290.717 19.0059C290.717 18.7617 290.812 18.5275 290.98 18.3549C291.148 18.1822 291.376 18.0852 291.613 18.0852H297.57C297.808 18.0852 298.036 18.1822 298.204 18.3549C298.372 18.5275 298.466 18.7617 298.466 19.0059C298.466 19.2501 298.372 19.4842 298.204 19.6569C298.036 19.8296 297.808 19.9266 297.57 19.9266ZM285.657 19.9266H279.682C279.444 19.9266 279.216 19.8296 279.048 19.6569C278.88 19.4842 278.786 19.2501 278.786 19.0059C278.786 18.7617 278.88 18.5275 279.048 18.3549C279.216 18.1822 279.444 18.0852 279.682 18.0852H285.657C285.894 18.0852 286.122 18.1822 286.29 18.3549C286.458 18.5275 286.553 18.7617 286.553 19.0059C286.553 19.2501 286.458 19.4842 286.29 19.6569C286.122 19.8296 285.894 19.9266 285.657 19.9266ZM273.74 19.9266L267.783 19.9266C267.545 19.9266 267.317 19.8296 267.149 19.6569C266.981 19.4842 266.887 19.2501 266.887 19.0059C266.887 18.7617 266.981 18.5275 267.149 18.3549C267.317 18.1822 267.545 18.0852 267.783 18.0852L273.74 18.0852C273.978 18.0852 274.205 18.1822 274.374 18.3549C274.542 18.5275 274.636 18.7617 274.636 19.0059C274.636 19.2501 274.542 19.4842 274.374 19.6569C274.205 19.8296 273.978 19.9266 273.74 19.9266ZM261.823 19.9266H255.875C255.638 19.9266 255.41 19.8296 255.242 19.6569C255.074 19.4842 254.979 19.2501 254.979 19.0059C254.979 18.7617 255.074 18.5275 255.242 18.3549C255.41 18.1822 255.638 18.0852 255.875 18.0852H261.832C262.07 18.0852 262.298 18.1822 262.466 18.3549C262.634 18.5275 262.728 18.7617 262.728 19.0059C262.728 19.2501 262.634 19.4842 262.466 19.6569C262.298 19.8296 262.07 19.9266 261.832 19.9266H261.823ZM249.91 19.9266H243.959C243.721 19.9266 243.493 19.8296 243.325 19.6569C243.157 19.4842 243.062 19.2501 243.062 19.0059C243.062 18.7617 243.157 18.5275 243.325 18.3549C243.493 18.1822 243.721 18.0852 243.959 18.0852H249.918C250.156 18.0852 250.384 18.1822 250.552 18.3549C250.72 18.5275 250.815 18.7617 250.815 19.0059C250.815 19.2501 250.72 19.4842 250.552 19.6569C250.384 19.8296 250.156 19.9266 249.918 19.9266H249.91ZM237.993 19.9266H232.045C231.807 19.9266 231.579 19.8296 231.411 19.6569C231.243 19.4842 231.149 19.2501 231.149 19.0059C231.149 18.7617 231.243 18.5275 231.411 18.3549C231.579 18.1822 231.807 18.0852 232.045 18.0852H238.002C238.239 18.0852 238.467 18.1822 238.636 18.3549C238.804 18.5275 238.898 18.7617 238.898 19.0059C238.898 19.2501 238.804 19.4842 238.636 19.6569C238.467 19.8296 238.239 19.9266 238.002 19.9266H237.993ZM226.076 19.9266H220.128C219.891 19.9266 219.663 19.8296 219.495 19.6569C219.326 19.4842 219.232 19.2501 219.232 19.0059C219.232 18.7617 219.326 18.5275 219.495 18.3549C219.663 18.1822 219.891 18.0852 220.128 18.0852H226.085C226.323 18.0852 226.551 18.1822 226.719 18.3549C226.887 18.5275 226.981 18.7617 226.981 19.0059C226.981 19.2501 226.887 19.4842 226.719 19.6569C226.551 19.8296 226.323 19.9266 226.085 19.9266H226.076ZM214.162 19.9266L208.212 19.9266C207.974 19.9266 207.746 19.8296 207.578 19.6569C207.41 19.4842 207.315 19.2501 207.315 19.0059C207.315 18.7617 207.41 18.5275 207.578 18.3549C207.746 18.1822 207.974 18.0852 208.212 18.0852L214.171 18.0852C214.409 18.0852 214.637 18.1822 214.805 18.3549C214.973 18.5275 215.068 18.7617 215.068 19.0059C215.068 19.2501 214.973 19.4842 214.805 19.6569C214.637 19.8296 214.409 19.9266 214.171 19.9266H214.162ZM202.246 19.9266H196.298C196.06 19.9266 195.832 19.8296 195.664 19.6569C195.496 19.4842 195.402 19.2501 195.402 19.0059C195.402 18.7617 195.496 18.5275 195.664 18.3549C195.832 18.1822 196.06 18.0852 196.298 18.0852H202.255C202.492 18.0852 202.72 18.1822 202.888 18.3549C203.057 18.5275 203.151 18.7617 203.151 19.0059C203.151 19.2501 203.057 19.4842 202.888 19.6569C202.72 19.8296 202.492 19.9266 202.255 19.9266H202.246ZM190.329 19.9266H184.381C184.144 19.9266 183.916 19.8296 183.748 19.6569C183.579 19.4842 183.485 19.2501 183.485 19.0059C183.485 18.7617 183.579 18.5275 183.748 18.3549C183.916 18.1822 184.144 18.0852 184.381 18.0852H190.338C190.576 18.0852 190.804 18.1822 190.972 18.3549C191.14 18.5275 191.234 18.7617 191.234 19.0059C191.234 19.2501 191.14 19.4842 190.972 19.6569C190.804 19.8296 190.576 19.9266 190.338 19.9266H190.329ZM178.415 19.9266H172.441C172.203 19.9266 171.975 19.8296 171.807 19.6569C171.639 19.4842 171.544 19.2501 171.544 19.0059C171.544 18.7617 171.639 18.5275 171.807 18.3549C171.975 18.1822 172.203 18.0852 172.441 18.0852H178.415C178.653 18.0852 178.881 18.1822 179.049 18.3549C179.217 18.5275 179.312 18.7617 179.312 19.0059C179.312 19.2501 179.217 19.4842 179.049 19.6569C178.881 19.8296 178.653 19.9266 178.415 19.9266ZM166.499 19.9266H160.551C160.313 19.9266 160.085 19.8296 159.917 19.6569C159.749 19.4842 159.655 19.2501 159.655 19.0059C159.655 18.7617 159.749 18.5275 159.917 18.3549C160.085 18.1822 160.313 18.0852 160.551 18.0852H166.508C166.745 18.0852 166.973 18.1822 167.141 18.3549C167.31 18.5275 167.404 18.7617 167.404 19.0059C167.404 19.2501 167.31 19.4842 167.141 19.6569C166.973 19.8296 166.745 19.9266 166.508 19.9266H166.499ZM154.582 19.9266L148.628 19.9266C148.391 19.9266 148.163 19.8296 147.995 19.6569C147.826 19.4842 147.732 19.2501 147.732 19.0059C147.732 18.7617 147.826 18.5275 147.995 18.3549C148.163 18.1822 148.391 18.0852 148.628 18.0852L154.603 18.0852C154.841 18.0852 155.069 18.1822 155.237 18.3549C155.405 18.5275 155.499 18.7617 155.499 19.0059C155.499 19.2501 155.405 19.4842 155.237 19.6569C155.069 19.8296 154.841 19.9266 154.603 19.9266H154.582ZM142.668 19.9266H136.694C136.456 19.9266 136.228 19.8296 136.06 19.6569C135.892 19.4842 135.797 19.2501 135.797 19.0059C135.797 18.7617 135.892 18.5275 136.06 18.3549C136.228 18.1822 136.456 18.0852 136.694 18.0852H142.668C142.906 18.0852 143.134 18.1822 143.302 18.3549C143.47 18.5275 143.565 18.7617 143.565 19.0059C143.565 19.2501 143.47 19.4842 143.302 19.6569C143.134 19.8296 142.906 19.9266 142.668 19.9266ZM130.752 19.9266L124.804 19.9266C124.566 19.9266 124.338 19.8296 124.17 19.6569C124.002 19.4842 123.908 19.2501 123.908 19.0059C123.908 18.7617 124.002 18.5275 124.17 18.3549C124.338 18.1822 124.566 18.0852 124.804 18.0852L130.761 18.0852C130.998 18.0852 131.226 18.1822 131.394 18.3549C131.562 18.5275 131.657 18.7617 131.657 19.0059C131.657 19.2501 131.562 19.4842 131.394 19.6569C131.226 19.8296 130.998 19.9266 130.761 19.9266H130.752ZM118.838 19.9266H112.887C112.649 19.9266 112.422 19.8296 112.253 19.6569C112.085 19.4842 111.991 19.2501 111.991 19.0059C111.991 18.7617 112.085 18.5275 112.253 18.3549C112.422 18.1822 112.649 18.0852 112.887 18.0852H118.847C119.085 18.0852 119.313 18.1822 119.481 18.3549C119.649 18.5275 119.743 18.7617 119.743 19.0059C119.743 19.2501 119.649 19.4842 119.481 19.6569C119.313 19.8296 119.085 19.9266 118.847 19.9266H118.838ZM106.921 19.9266H100.973C100.736 19.9266 100.508 19.8296 100.34 19.6569C100.172 19.4842 100.077 19.2501 100.077 19.0059C100.077 18.7617 100.172 18.5275 100.34 18.3549C100.508 18.1822 100.736 18.0852 100.973 18.0852H106.93C107.168 18.0852 107.396 18.1822 107.564 18.3549C107.732 18.5275 107.827 18.7617 107.827 19.0059C107.827 19.2501 107.732 19.4842 107.564 19.6569C107.396 19.8296 107.168 19.9266 106.93 19.9266H106.921ZM95.0047 19.9266H89.0568C88.8191 19.9266 88.5912 19.8296 88.4231 19.6569C88.255 19.4842 88.1606 19.2501 88.1606 19.0059C88.1606 18.7617 88.255 18.5275 88.4231 18.3549C88.5912 18.1822 88.8191 18.0852 89.0568 18.0852H95.0137C95.2514 18.0852 95.4793 18.1822 95.6474 18.3549C95.8155 18.5275 95.9099 18.7617 95.9099 19.0059C95.9099 19.2501 95.8155 19.4842 95.6474 19.6569C95.4793 19.8296 95.2514 19.9266 95.0137 19.9266H95.0047ZM83.091 19.9266H77.1402C76.9025 19.9266 76.6745 19.8296 76.5064 19.6569C76.3384 19.4842 76.2439 19.2501 76.2439 19.0059C76.2439 18.7617 76.3384 18.5275 76.5064 18.3549C76.6745 18.1822 76.9025 18.0852 77.1402 18.0852H83.1C83.3377 18.0852 83.5656 18.1822 83.7337 18.3549C83.9018 18.5275 83.9962 18.7617 83.9962 19.0059C83.9962 19.2501 83.9018 19.4842 83.7337 19.6569C83.5656 19.8296 83.3377 19.9266 83.1 19.9266H83.091ZM71.1743 19.9266L65.2265 19.9266C64.9888 19.9266 64.7608 19.8296 64.5927 19.6569C64.4247 19.4842 64.3303 19.2501 64.3303 19.0059C64.3303 18.7617 64.4247 18.5275 64.5927 18.3549C64.7608 18.1822 64.9888 18.0852 65.2265 18.0852L71.1833 18.0852C71.421 18.0852 71.649 18.1822 71.817 18.3549C71.9851 18.5275 72.0795 18.7617 72.0795 19.0059C72.0795 19.2501 71.9851 19.4842 71.817 19.6569C71.649 19.8296 71.421 19.9266 71.1833 19.9266H71.1743ZM59.2577 19.9266H53.3098C53.0721 19.9266 52.8441 19.8296 52.6761 19.6569C52.508 19.4842 52.4136 19.2501 52.4136 19.0059C52.4136 18.7617 52.508 18.5275 52.6761 18.3549C52.8441 18.1822 53.0721 18.0852 53.3098 18.0852H59.2666C59.5043 18.0852 59.7323 18.1822 59.9004 18.3549C60.0684 18.5275 60.1628 18.7617 60.1628 19.0059C60.1628 19.2501 60.0684 19.4842 59.9004 19.6569C59.7323 19.8296 59.5043 19.9266 59.2666 19.9266H59.2577Z" fill="black"/>
<path d="M366.11 19.9266H363.122C362.885 19.9266 362.657 19.8296 362.489 19.6569C362.32 19.4842 362.226 19.2501 362.226 19.0059C362.226 18.7617 362.32 18.5275 362.489 18.3549C362.657 18.1822 362.885 18.0852 363.122 18.0852H366.11C366.347 18.0852 366.575 18.1822 366.743 18.3549C366.911 18.5275 367.006 18.7617 367.006 19.0059C367.006 19.2501 366.911 19.4842 366.743 19.6569C366.575 19.8296 366.347 19.9266 366.11 19.9266Z" fill="black"/>
</g>
<defs>
<clipPath id="clip0_10_427">
<rect width="367" height="39" fill="white"/>
</clipPath>
</defs>
</svg>
