<svg width="392" height="41" viewBox="0 0 392 41" fill="none" xmlns="http://www.w3.org/2000/svg">
<g clip-path="url(#clip0_9_18)">
<path d="M380.382 1.80573e-05C379.6 0.000567305 378.832 0.209636 378.155 0.606143C377.479 1.00265 376.917 1.57257 376.528 2.25844L368.401 16.4542C368.124 16.939 367.727 17.3427 367.249 17.6255C366.772 17.9083 366.229 18.0606 365.676 18.0674L359.489 18.1254C357.947 18.1389 356.428 18.5051 355.047 19.1966L354.15 19.645C353.987 19.7236 353.848 19.8474 353.752 20.0022C353.655 20.1569 353.604 20.3363 353.604 20.5194C353.604 20.7025 353.655 20.8818 353.752 21.0366C353.848 21.1913 353.987 21.3151 354.15 21.3937L355.047 21.8421C356.429 22.5319 357.947 22.898 359.489 22.9133L365.669 22.952C366.223 22.9568 366.766 23.1083 367.244 23.3913C367.723 23.6744 368.119 24.0791 368.394 24.5652L376.521 38.7609C376.912 39.4455 377.474 40.0143 378.15 40.4106C378.827 40.8069 379.594 41.0168 380.376 41.0193C377.064 34.841 375.178 27.1301 374.486 23.9199C374.464 23.8172 374.465 23.7108 374.489 23.6086C374.513 23.5065 374.56 23.4111 374.625 23.3296C374.691 23.2481 374.774 23.1826 374.868 23.1379C374.962 23.0932 375.065 23.0704 375.169 23.0714L375.507 24.3909C375.586 24.7 375.777 24.9676 376.043 25.1399C376.308 25.3123 376.629 25.3766 376.939 25.3201L378.675 24.9975C378.909 24.9528 379.122 24.8315 379.282 24.6523C379.449 24.4673 379.674 24.3456 379.92 24.3071L380.558 24.2103L379.856 24.0844C379.64 24.0463 379.44 23.9415 379.285 23.7844L379.02 23.5166L378.589 23.0972L379.901 23.0972C380.744 23.1069 381.584 23.0072 382.402 22.8004L386.515 21.7615L388.165 26.2493C388.336 26.7163 388.659 27.1111 389.08 27.3694C389.501 27.6278 389.996 27.7344 390.485 27.6721L392.007 27.4785L389.601 20.971L390.746 20.6807C390.787 20.6711 390.824 20.6479 390.85 20.6148C390.876 20.5817 390.89 20.5407 390.89 20.4984C390.89 20.4561 390.876 20.4151 390.85 20.382C390.824 20.3489 390.787 20.3257 390.746 20.3161L389.601 20.029L392 13.5344L390.466 13.3376C389.98 13.2757 389.488 13.3808 389.068 13.6359C388.648 13.8911 388.326 14.2814 388.152 14.7443L386.464 19.2385L382.396 18.2126C381.579 18.0064 380.739 17.9056 379.897 17.9125L378.583 17.9125L379.014 17.4931L379.278 17.2285C379.433 17.0704 379.633 16.9645 379.85 16.9253L380.552 16.8027L379.913 16.7059C379.667 16.6674 379.442 16.5444 379.275 16.3574C379.117 16.178 378.903 16.0576 378.669 16.0154L376.933 15.6928C376.622 15.6371 376.303 15.7018 376.037 15.874C375.771 16.0462 375.58 16.3133 375.5 16.622L375.162 17.9415C375.058 17.9425 374.955 17.9198 374.861 17.8751C374.767 17.8304 374.684 17.7648 374.619 17.6833C374.553 17.6018 374.507 17.5065 374.483 17.4043C374.458 17.3021 374.457 17.1957 374.479 17.093C375.185 13.8893 377.07 6.17518 380.382 1.80573e-05Z" fill="black"/>
<path d="M341.418 20.0515L344.609 20.0515C344.863 20.0515 345.107 20.1535 345.286 20.335C345.466 20.5165 345.566 20.7627 345.566 21.0194C345.566 21.2761 345.466 21.5223 345.286 21.7038C345.107 21.8854 344.863 21.9873 344.609 21.9873L341.418 21.9873C341.164 21.9873 340.921 21.8854 340.741 21.7038C340.562 21.5223 340.461 21.2761 340.461 21.0194C340.461 20.7627 340.562 20.5165 340.741 20.335C340.921 20.1535 341.164 20.0515 341.418 20.0515Z" fill="black"/>
<path d="M10.5237 20.0515L16.8862 20.0515C17.1401 20.0515 17.3836 20.1535 17.5631 20.335C17.7426 20.5165 17.8435 20.7627 17.8435 21.0194C17.8435 21.2761 17.7426 21.5223 17.5631 21.7038C17.3836 21.8853 17.1401 21.9873 16.8862 21.9873L10.5237 21.9873C10.2697 21.9873 10.0263 21.8853 9.84674 21.7038C9.66724 21.5223 9.56638 21.2761 9.56638 21.0194C9.56638 20.7627 9.66724 20.5165 9.84674 20.335C10.0263 20.1535 10.2697 20.0515 10.5237 20.0515ZM23.2489 20.0515L29.6115 20.0515C29.8654 20.0515 30.1089 20.1535 30.2884 20.335C30.4679 20.5165 30.5688 20.7627 30.5688 21.0194C30.5688 21.2761 30.4679 21.5223 30.2884 21.7038C30.1089 21.8853 29.8654 21.9873 29.6115 21.9873L23.2489 21.9873C22.995 21.9873 22.7515 21.8853 22.572 21.7038C22.3925 21.5223 22.2916 21.2761 22.2916 21.0194C22.2916 20.7627 22.3925 20.5165 22.572 20.335C22.7515 20.1535 22.995 20.0515 23.2489 20.0515ZM35.9773 20.0515L42.3399 20.0515C42.5938 20.0515 42.8373 20.1535 43.0168 20.335C43.1964 20.5165 43.2972 20.7627 43.2972 21.0194C43.2972 21.2761 43.1964 21.5223 43.0168 21.7038C42.8373 21.8853 42.5938 21.9873 42.3399 21.9873L35.9773 21.9873C35.7234 21.9873 35.4799 21.8853 35.3004 21.7038C35.1209 21.5223 35.0201 21.2761 35.0201 21.0194C35.0201 20.7627 35.1209 20.5165 35.3004 20.335C35.48 20.1535 35.7234 20.0515 35.9773 20.0515ZM48.7026 20.0515L55.0844 20.0515C55.3382 20.0515 55.5817 20.1535 55.7612 20.335C55.9408 20.5165 56.0416 20.7627 56.0416 21.0194C56.0416 21.2761 55.9408 21.5223 55.7612 21.7038C55.5817 21.8853 55.3382 21.9873 55.0844 21.9873L48.7026 21.9873C48.4487 21.9873 48.2052 21.8853 48.0257 21.7038C47.8462 21.5223 47.7453 21.2761 47.7453 21.0194C47.7453 20.7627 47.8462 20.5165 48.0257 20.335C48.2052 20.1535 48.4487 20.0515 48.7026 20.0515ZM61.431 20.0515L67.7936 20.0515C68.0475 20.0515 68.291 20.1535 68.4705 20.335C68.65 20.5165 68.7509 20.7627 68.7509 21.0194C68.7509 21.2761 68.65 21.5223 68.4705 21.7038C68.291 21.8853 68.0475 21.9873 67.7936 21.9873L61.431 21.9873C61.1771 21.9873 60.9336 21.8853 60.7541 21.7038C60.5746 21.5223 60.4738 21.2761 60.4738 21.0194C60.4738 20.7627 60.5746 20.5165 60.7541 20.335C60.9336 20.1535 61.1771 20.0515 61.431 20.0515ZM74.1595 20.0515L80.522 20.0515C80.7759 20.0515 81.0194 20.1535 81.1989 20.335C81.3785 20.5165 81.4793 20.7627 81.4793 21.0194C81.4793 21.2761 81.3785 21.5223 81.1989 21.7038C81.0194 21.8853 80.7759 21.9873 80.522 21.9873L74.1595 21.9873C73.9056 21.9873 73.6621 21.8853 73.4825 21.7038C73.303 21.5223 73.2022 21.2761 73.2022 21.0194C73.2022 20.7627 73.303 20.5165 73.4825 20.335C73.6621 20.1535 73.9056 20.0515 74.1595 20.0515ZM86.8847 20.0515L93.2665 20.0515C93.5203 20.0515 93.7638 20.1535 93.9433 20.335C94.1228 20.5165 94.2237 20.7627 94.2237 21.0194C94.2237 21.2761 94.1228 21.5223 93.9433 21.7038C93.7638 21.8853 93.5203 21.9873 93.2665 21.9873L86.8847 21.9873C86.6308 21.9873 86.3873 21.8853 86.2078 21.7038C86.0283 21.5223 85.9274 21.2761 85.9274 21.0194C85.9274 20.7627 86.0283 20.5165 86.2078 20.335C86.3873 20.1535 86.6308 20.0515 86.8847 20.0515ZM99.6131 20.0515L105.976 20.0515C106.23 20.0515 106.473 20.1535 106.653 20.335C106.832 20.5165 106.933 20.7627 106.933 21.0194C106.933 21.2761 106.832 21.5223 106.653 21.7038C106.473 21.8853 106.23 21.9873 105.976 21.9873L99.6131 21.9873C99.3592 21.9873 99.1158 21.8853 98.9362 21.7038C98.7567 21.5223 98.6558 21.2761 98.6558 21.0194C98.6558 20.7627 98.7567 20.5165 98.9362 20.335C99.1158 20.1535 99.3592 20.0515 99.6131 20.0515ZM112.342 20.0515L118.695 20.0515C118.948 20.0515 119.192 20.1535 119.371 20.335C119.551 20.5165 119.652 20.7627 119.652 21.0194C119.652 21.2761 119.551 21.5223 119.371 21.7038C119.192 21.8853 118.948 21.9873 118.695 21.9873L112.332 21.9873C112.078 21.9873 111.835 21.8853 111.655 21.7038C111.476 21.5223 111.375 21.2761 111.375 21.0194C111.375 20.7627 111.476 20.5165 111.655 20.335C111.835 20.1535 112.078 20.0515 112.332 20.0515L112.342 20.0515ZM125.067 20.0515L131.423 20.0515C131.677 20.0515 131.92 20.1535 132.1 20.335C132.279 20.5165 132.38 20.7627 132.38 21.0194C132.38 21.2761 132.279 21.5223 132.1 21.7038C131.92 21.8853 131.677 21.9873 131.423 21.9873L125.057 21.9873C124.803 21.9873 124.56 21.8853 124.38 21.7038C124.201 21.5223 124.1 21.2761 124.1 21.0194C124.1 20.7627 124.201 20.5165 124.38 20.335C124.56 20.1535 124.803 20.0515 125.057 20.0515L125.067 20.0515ZM137.795 20.0515L144.148 20.0515C144.402 20.0515 144.646 20.1535 144.825 20.335C145.005 20.5165 145.106 20.7627 145.106 21.0194C145.106 21.2761 145.005 21.5223 144.825 21.7038C144.646 21.8853 144.402 21.9873 144.148 21.9873L137.786 21.9873C137.532 21.9873 137.288 21.8853 137.109 21.7038C136.929 21.5223 136.828 21.2761 136.828 21.0194C136.828 20.7627 136.929 20.5165 137.109 20.335C137.288 20.1535 137.532 20.0515 137.786 20.0515L137.795 20.0515ZM150.524 20.0515L156.877 20.0515C157.131 20.0515 157.374 20.1535 157.554 20.335C157.733 20.5165 157.834 20.7627 157.834 21.0194C157.834 21.2761 157.733 21.5223 157.554 21.7038C157.374 21.8853 157.131 21.9873 156.877 21.9873L150.514 21.9873C150.26 21.9873 150.017 21.8853 149.837 21.7038C149.658 21.5223 149.557 21.2761 149.557 21.0194C149.557 20.7627 149.658 20.5165 149.837 20.335C150.017 20.1535 150.26 20.0515 150.514 20.0515L150.524 20.0515ZM163.249 20.0515L169.605 20.0515C169.859 20.0515 170.103 20.1535 170.282 20.335C170.462 20.5165 170.562 20.7627 170.562 21.0194C170.562 21.2761 170.462 21.5223 170.282 21.7038C170.103 21.8853 169.859 21.9873 169.605 21.9873L163.239 21.9873C162.985 21.9873 162.742 21.8853 162.562 21.7038C162.383 21.5223 162.282 21.2761 162.282 21.0194C162.282 20.7627 162.383 20.5165 162.562 20.335C162.742 20.1535 162.985 20.0515 163.239 20.0515L163.249 20.0515ZM175.977 20.0515L182.33 20.0515C182.584 20.0515 182.828 20.1535 183.007 20.335C183.187 20.5165 183.288 20.7627 183.288 21.0194C183.288 21.2761 183.187 21.5223 183.007 21.7038C182.828 21.8853 182.584 21.9873 182.33 21.9873L175.968 21.9873C175.714 21.9873 175.47 21.8853 175.291 21.7038C175.111 21.5223 175.01 21.2761 175.01 21.0194C175.01 20.7627 175.111 20.5165 175.291 20.335C175.47 20.1535 175.714 20.0515 175.968 20.0515L175.977 20.0515ZM188.706 20.0515L195.059 20.0515C195.313 20.0515 195.556 20.1535 195.736 20.335C195.915 20.5165 196.016 20.7627 196.016 21.0194C196.016 21.2761 195.915 21.5223 195.736 21.7038C195.556 21.8853 195.313 21.9873 195.059 21.9873L188.696 21.9873C188.442 21.9873 188.199 21.8853 188.019 21.7038C187.84 21.5223 187.739 21.2761 187.739 21.0194C187.739 20.7627 187.84 20.5165 188.019 20.335C188.199 20.1535 188.442 20.0515 188.696 20.0515L188.706 20.0515ZM201.431 20.0515L207.813 20.0515C208.067 20.0515 208.31 20.1535 208.49 20.335C208.669 20.5165 208.77 20.7627 208.77 21.0194C208.77 21.2761 208.669 21.5223 208.49 21.7038C208.31 21.8853 208.067 21.9873 207.813 21.9873L201.431 21.9873C201.177 21.9873 200.934 21.8853 200.754 21.7038C200.575 21.5223 200.474 21.2761 200.474 21.0194C200.474 20.7627 200.575 20.5165 200.754 20.335C200.934 20.1535 201.177 20.0515 201.431 20.0515ZM214.159 20.0515L220.513 20.0515C220.766 20.0515 221.01 20.1535 221.189 20.335C221.369 20.5165 221.47 20.7627 221.47 21.0194C221.47 21.2761 221.369 21.5223 221.189 21.7038C221.01 21.8853 220.766 21.9873 220.513 21.9873L214.15 21.9873C213.896 21.9873 213.653 21.8853 213.473 21.7038C213.293 21.5223 213.193 21.2761 213.193 21.0194C213.193 20.7627 213.293 20.5165 213.473 20.335C213.653 20.1535 213.896 20.0515 214.15 20.0515L214.159 20.0515ZM226.888 20.0515L233.247 20.0515C233.501 20.0515 233.745 20.1535 233.924 20.335C234.104 20.5165 234.205 20.7627 234.205 21.0194C234.205 21.2761 234.104 21.5223 233.924 21.7038C233.745 21.8853 233.501 21.9873 233.247 21.9873L226.866 21.9873C226.612 21.9873 226.368 21.8853 226.189 21.7038C226.009 21.5223 225.908 21.2761 225.908 21.0194C225.908 20.7627 226.009 20.5165 226.189 20.335C226.368 20.1535 226.612 20.0515 226.866 20.0515L226.888 20.0515ZM239.613 20.0515L245.995 20.0515C246.249 20.0515 246.492 20.1535 246.672 20.335C246.851 20.5165 246.952 20.7627 246.952 21.0194C246.952 21.2761 246.851 21.5223 246.672 21.7038C246.492 21.8853 246.249 21.9873 245.995 21.9873L239.613 21.9873C239.359 21.9873 239.116 21.8853 238.936 21.7038C238.757 21.5223 238.656 21.2761 238.656 21.0194C238.656 20.7627 238.757 20.5165 238.936 20.335C239.116 20.1535 239.359 20.0515 239.613 20.0515ZM252.342 20.0515L258.695 20.0515C258.949 20.0515 259.192 20.1535 259.372 20.335C259.551 20.5165 259.652 20.7627 259.652 21.0194C259.652 21.2761 259.551 21.5223 259.372 21.7038C259.192 21.8854 258.949 21.9873 258.695 21.9873L252.332 21.9873C252.078 21.9873 251.835 21.8853 251.655 21.7038C251.476 21.5223 251.375 21.2761 251.375 21.0194C251.375 20.7627 251.476 20.5165 251.655 20.335C251.835 20.1535 252.078 20.0515 252.332 20.0515L252.342 20.0515ZM265.067 20.0515L271.423 20.0515C271.677 20.0515 271.92 20.1535 272.1 20.335C272.279 20.5165 272.38 20.7627 272.38 21.0194C272.38 21.2761 272.279 21.5223 272.1 21.7038C271.92 21.8854 271.677 21.9873 271.423 21.9873L265.057 21.9873C264.803 21.9873 264.56 21.8854 264.38 21.7038C264.201 21.5223 264.1 21.2761 264.1 21.0194C264.1 20.7627 264.201 20.5165 264.38 20.335C264.56 20.1535 264.803 20.0515 265.057 20.0515L265.067 20.0515ZM277.795 20.0515L284.148 20.0515C284.402 20.0515 284.646 20.1535 284.825 20.335C285.005 20.5165 285.106 20.7627 285.106 21.0194C285.106 21.2761 285.005 21.5223 284.825 21.7038C284.646 21.8854 284.402 21.9873 284.148 21.9873L277.786 21.9873C277.532 21.9873 277.288 21.8854 277.109 21.7038C276.929 21.5223 276.828 21.2761 276.828 21.0194C276.828 20.7627 276.929 20.5165 277.109 20.335C277.288 20.1535 277.532 20.0515 277.786 20.0515L277.795 20.0515ZM290.524 20.0515L296.877 20.0515C297.131 20.0515 297.374 20.1535 297.554 20.335C297.733 20.5165 297.834 20.7627 297.834 21.0194C297.834 21.2761 297.733 21.5223 297.554 21.7038C297.374 21.8854 297.131 21.9873 296.877 21.9873L290.514 21.9873C290.26 21.9873 290.017 21.8854 289.837 21.7038C289.658 21.5223 289.557 21.2761 289.557 21.0194C289.557 20.7627 289.658 20.5165 289.837 20.335C290.017 20.1535 290.26 20.0515 290.514 20.0515L290.524 20.0515ZM303.249 20.0515L309.605 20.0515C309.859 20.0515 310.103 20.1535 310.282 20.335C310.462 20.5165 310.562 20.7627 310.562 21.0194C310.562 21.2761 310.462 21.5223 310.282 21.7038C310.103 21.8854 309.859 21.9873 309.605 21.9873L303.239 21.9873C302.985 21.9873 302.742 21.8854 302.562 21.7038C302.383 21.5223 302.282 21.2761 302.282 21.0194C302.282 20.7627 302.383 20.5165 302.562 20.335C302.742 20.1535 302.985 20.0515 303.239 20.0515L303.249 20.0515ZM315.977 20.0515L322.33 20.0515C322.584 20.0515 322.828 20.1535 323.007 20.335C323.187 20.5165 323.288 20.7627 323.288 21.0194C323.288 21.2761 323.187 21.5223 323.007 21.7038C322.828 21.8854 322.584 21.9873 322.33 21.9873L315.968 21.9873C315.714 21.9873 315.47 21.8854 315.291 21.7038C315.111 21.5223 315.011 21.2761 315.011 21.0194C315.011 20.7627 315.111 20.5165 315.291 20.335C315.47 20.1535 315.714 20.0515 315.968 20.0515L315.977 20.0515ZM328.706 20.0515L335.059 20.0515C335.313 20.0515 335.556 20.1535 335.736 20.335C335.915 20.5165 336.016 20.7627 336.016 21.0194C336.016 21.2761 335.915 21.5223 335.736 21.7038C335.556 21.8854 335.313 21.9873 335.059 21.9873L328.696 21.9873C328.442 21.9873 328.199 21.8854 328.019 21.7038C327.84 21.5223 327.739 21.2761 327.739 21.0194C327.739 20.7627 327.84 20.5165 328.019 20.335C328.199 20.1535 328.442 20.0515 328.696 20.0515L328.706 20.0515Z" fill="black"/>
<path d="M0.950973 20.0515L4.14186 20.0515C4.39574 20.0515 4.63923 20.1535 4.81875 20.335C4.99827 20.5165 5.09912 20.7627 5.09912 21.0194C5.09912 21.2761 4.99827 21.5223 4.81875 21.7038C4.63923 21.8853 4.39574 21.9873 4.14186 21.9873L0.950973 21.9873C0.69709 21.9873 0.4536 21.8853 0.274078 21.7038C0.0945564 21.5223 -0.00629228 21.2761 -0.00629226 21.0194C-0.00629224 20.7627 0.0945565 20.5165 0.274079 20.335C0.453601 20.1535 0.69709 20.0515 0.950973 20.0515Z" fill="black"/>
</g>
<defs>
<clipPath id="clip0_9_18">
<rect width="392" height="41" fill="white" transform="translate(392 41) rotate(-180)"/>
</clipPath>
</defs>
</svg>
