<svg width="392" height="41" viewBox="0 0 392 41" fill="none" xmlns="http://www.w3.org/2000/svg">
<g clip-path="url(#clip0_9_244)">
<path d="M11.6173 40.9999C12.3995 40.9994 13.1676 40.7903 13.8444 40.3938C14.5211 39.9973 15.0825 39.4274 15.4719 38.7415L23.5991 24.5457C23.8758 24.0609 24.2726 23.6573 24.7504 23.3744C25.2282 23.0916 25.7705 22.9393 26.3241 22.9326L32.5112 22.8745C34.0528 22.8611 35.5713 22.4949 36.9529 21.8034L37.8496 21.3549C38.0131 21.2764 38.1513 21.1525 38.2481 20.9978C38.3448 20.843 38.3962 20.6637 38.3962 20.4806C38.3962 20.2975 38.3448 20.1181 38.2481 19.9634C38.1513 19.8086 38.0131 19.6848 37.8496 19.6062L36.9529 19.1578C35.5707 18.4681 34.0525 18.102 32.5112 18.0866L26.3305 18.0479C25.7765 18.0431 25.2334 17.8916 24.7553 17.6086C24.2772 17.3256 23.8808 16.9209 23.6055 16.4348L15.4783 2.23901C15.0874 1.55446 14.5257 0.98561 13.8493 0.5893C13.1729 0.19299 12.4054 -0.0169025 11.6237 -0.0194092C14.9358 6.15898 16.8216 13.8699 17.5141 17.08C17.5361 17.1827 17.535 17.2891 17.5108 17.3913C17.4867 17.4935 17.44 17.5889 17.3745 17.6704C17.3089 17.7519 17.226 17.8174 17.1319 17.8621C17.0379 17.9068 16.9351 17.9295 16.8312 17.9286L16.493 16.609C16.4142 16.2999 16.2228 16.0323 15.957 15.86C15.6913 15.6877 15.371 15.6233 15.0603 15.6798L13.3244 16.0025C13.0903 16.0471 12.8773 16.1684 12.7182 16.3477C12.5503 16.5326 12.3253 16.6543 12.08 16.6929L11.4418 16.7897L12.1438 16.9155C12.3602 16.9536 12.5597 17.0584 12.715 17.2156L12.9798 17.4833L13.4106 17.9027H12.0991C11.2561 17.893 10.4154 17.9928 9.59747 18.1996L5.48443 19.2384L3.83474 14.7506C3.66361 14.2836 3.34125 13.8888 2.92008 13.6305C2.49891 13.3722 2.0037 13.2655 1.51497 13.3278L-0.00708008 13.5214L2.39884 20.0289L1.25332 20.3193C1.21258 20.3288 1.17625 20.352 1.15024 20.3851C1.12422 20.4182 1.11006 20.4593 1.11006 20.5015C1.11006 20.5438 1.12422 20.5849 1.15024 20.618C1.17625 20.6511 1.21258 20.6743 1.25332 20.6838L2.39884 20.971L-0.000701818 27.4655L1.53411 27.6623C2.01988 27.7242 2.51212 27.6191 2.9317 27.364C3.35127 27.1089 3.67382 26.7185 3.8475 26.2557L5.53548 21.7614L9.60386 22.7874C10.4208 22.9935 11.2603 23.0943 12.1023 23.0874H13.417L12.9862 23.5069L12.7214 23.7714C12.5664 23.9296 12.3669 24.0355 12.1502 24.0747L11.4482 24.1973L12.0864 24.2941C12.3324 24.3325 12.5578 24.4556 12.7245 24.6425C12.8831 24.8219 13.0965 24.9424 13.3308 24.9845L15.0666 25.3071C15.3773 25.3629 15.6973 25.2982 15.9628 25.126C16.2283 24.9537 16.4199 24.6867 16.4994 24.378L16.8376 23.0584C16.9415 23.0575 17.0443 23.0802 17.1383 23.1249C17.2324 23.1696 17.3153 23.2351 17.3808 23.3166C17.4464 23.3981 17.493 23.4935 17.5172 23.5957C17.5414 23.6979 17.5425 23.8042 17.5204 23.9069C16.8153 27.1106 14.9294 34.8248 11.6173 40.9999Z" fill="black"/>
<path d="M50.5817 20.9485H47.3909C47.137 20.9485 46.8935 20.8465 46.714 20.665C46.5345 20.4835 46.4336 20.2373 46.4336 19.9806C46.4336 19.7239 46.5345 19.4777 46.714 19.2962C46.8935 19.1147 47.137 19.0127 47.3909 19.0127H50.5817C50.8356 19.0127 51.0791 19.1147 51.2586 19.2962C51.4381 19.4777 51.539 19.7239 51.539 19.9806C51.539 20.2373 51.4381 20.4835 51.2586 20.665C51.0791 20.8465 50.8356 20.9485 50.5817 20.9485Z" fill="black"/>
<path d="M381.476 20.9485H375.114C374.86 20.9485 374.616 20.8465 374.437 20.665C374.257 20.4835 374.156 20.2373 374.156 19.9806C374.156 19.7239 374.257 19.4777 374.437 19.2962C374.616 19.1147 374.86 19.0127 375.114 19.0127H381.476C381.73 19.0127 381.974 19.1147 382.153 19.2962C382.333 19.4777 382.434 19.7239 382.434 19.9806C382.434 20.2373 382.333 20.4835 382.153 20.665C381.974 20.8465 381.73 20.9485 381.476 20.9485ZM368.751 20.9485H362.389C362.135 20.9485 361.891 20.8465 361.712 20.665C361.532 20.4835 361.431 20.2373 361.431 19.9806C361.431 19.7239 361.532 19.4777 361.712 19.2962C361.891 19.1147 362.135 19.0127 362.389 19.0127H368.751C369.005 19.0127 369.248 19.1147 369.428 19.2962C369.608 19.4777 369.708 19.7239 369.708 19.9806C369.708 20.2373 369.608 20.4835 369.428 20.665C369.248 20.8465 369.005 20.9485 368.751 20.9485ZM356.023 20.9485H349.66C349.406 20.9485 349.163 20.8465 348.983 20.665C348.804 20.4835 348.703 20.2373 348.703 19.9806C348.703 19.7239 348.804 19.4777 348.983 19.2962C349.163 19.1147 349.406 19.0127 349.66 19.0127H356.023C356.277 19.0127 356.52 19.1147 356.7 19.2962C356.879 19.4777 356.98 19.7239 356.98 19.9806C356.98 20.2373 356.879 20.4835 356.7 20.665C356.52 20.8465 356.277 20.9485 356.023 20.9485ZM343.297 20.9485H336.916C336.662 20.9485 336.418 20.8465 336.239 20.665C336.059 20.4835 335.958 20.2373 335.958 19.9806C335.958 19.7239 336.059 19.4777 336.239 19.2962C336.418 19.1147 336.662 19.0127 336.916 19.0127H343.297C343.551 19.0127 343.795 19.1147 343.974 19.2962C344.154 19.4777 344.255 19.7239 344.255 19.9806C344.255 20.2373 344.154 20.4835 343.974 20.665C343.795 20.8465 343.551 20.9485 343.297 20.9485ZM330.569 20.9485H324.206C323.953 20.9485 323.709 20.8465 323.529 20.665C323.35 20.4835 323.249 20.2373 323.249 19.9806C323.249 19.7239 323.35 19.4777 323.529 19.2962C323.709 19.1147 323.953 19.0127 324.206 19.0127H330.569C330.823 19.0127 331.066 19.1147 331.246 19.2962C331.425 19.4777 331.526 19.7239 331.526 19.9806C331.526 20.2373 331.425 20.4835 331.246 20.665C331.066 20.8465 330.823 20.9485 330.569 20.9485ZM317.841 20.9485H311.478C311.224 20.9485 310.981 20.8465 310.801 20.665C310.622 20.4835 310.521 20.2373 310.521 19.9806C310.521 19.7239 310.622 19.4777 310.801 19.2962C310.981 19.1147 311.224 19.0127 311.478 19.0127H317.841C318.094 19.0127 318.338 19.1147 318.517 19.2962C318.697 19.4777 318.798 19.7239 318.798 19.9806C318.798 20.2373 318.697 20.4835 318.517 20.665C318.338 20.8465 318.094 20.9485 317.841 20.9485ZM305.115 20.9485L298.734 20.9485C298.48 20.9485 298.236 20.8465 298.057 20.665C297.877 20.4835 297.776 20.2373 297.776 19.9806C297.776 19.7239 297.877 19.4777 298.057 19.2962C298.236 19.1147 298.48 19.0127 298.734 19.0127L305.115 19.0127C305.369 19.0127 305.613 19.1147 305.792 19.2962C305.972 19.4777 306.073 19.7239 306.073 19.9806C306.073 20.2373 305.972 20.4835 305.792 20.665C305.613 20.8465 305.369 20.9485 305.115 20.9485ZM292.387 20.9485H286.024C285.77 20.9485 285.527 20.8465 285.347 20.665C285.168 20.4835 285.067 20.2373 285.067 19.9806C285.067 19.7239 285.168 19.4777 285.347 19.2962C285.527 19.1147 285.77 19.0127 286.024 19.0127H292.387C292.641 19.0127 292.884 19.1147 293.064 19.2962C293.243 19.4777 293.344 19.7239 293.344 19.9806C293.344 20.2373 293.243 20.4835 293.064 20.665C292.884 20.8465 292.641 20.9485 292.387 20.9485ZM279.658 20.9485H273.305C273.052 20.9485 272.808 20.8465 272.629 20.665C272.449 20.4835 272.348 20.2373 272.348 19.9806C272.348 19.7239 272.449 19.4777 272.629 19.2962C272.808 19.1147 273.052 19.0127 273.305 19.0127L279.668 19.0127C279.922 19.0127 280.165 19.1147 280.345 19.2962C280.524 19.4777 280.625 19.7239 280.625 19.9806C280.625 20.2373 280.524 20.4835 280.345 20.665C280.165 20.8465 279.922 20.9485 279.668 20.9485H279.658ZM266.933 20.9485H260.577C260.323 20.9485 260.08 20.8465 259.9 20.665C259.721 20.4835 259.62 20.2373 259.62 19.9806C259.62 19.7239 259.721 19.4777 259.9 19.2962C260.08 19.1147 260.323 19.0127 260.577 19.0127H266.943C267.197 19.0127 267.44 19.1147 267.62 19.2962C267.799 19.4777 267.9 19.7239 267.9 19.9806C267.9 20.2373 267.799 20.4835 267.62 20.665C267.44 20.8465 267.197 20.9485 266.943 20.9485H266.933ZM254.205 20.9485H247.852C247.598 20.9485 247.354 20.8465 247.175 20.665C246.995 20.4835 246.894 20.2373 246.894 19.9806C246.894 19.7239 246.995 19.4777 247.175 19.2962C247.354 19.1147 247.598 19.0127 247.852 19.0127H254.214C254.468 19.0127 254.712 19.1147 254.891 19.2962C255.071 19.4777 255.172 19.7239 255.172 19.9806C255.172 20.2373 255.071 20.4835 254.891 20.665C254.712 20.8465 254.468 20.9485 254.214 20.9485H254.205ZM241.476 20.9485H235.123C234.869 20.9485 234.626 20.8465 234.446 20.665C234.267 20.4835 234.166 20.2373 234.166 19.9806C234.166 19.7239 234.267 19.4777 234.446 19.2962C234.626 19.1147 234.869 19.0127 235.123 19.0127H241.486C241.74 19.0127 241.983 19.1147 242.163 19.2962C242.342 19.4777 242.443 19.7239 242.443 19.9806C242.443 20.2373 242.342 20.4835 242.163 20.665C241.983 20.8465 241.74 20.9485 241.486 20.9485H241.476ZM228.751 20.9485H222.395C222.141 20.9485 221.897 20.8465 221.718 20.665C221.538 20.4835 221.438 20.2373 221.438 19.9806C221.438 19.7239 221.538 19.4777 221.718 19.2962C221.897 19.1147 222.141 19.0127 222.395 19.0127H228.761C229.015 19.0127 229.258 19.1147 229.438 19.2962C229.617 19.4777 229.718 19.7239 229.718 19.9806C229.718 20.2373 229.617 20.4835 229.438 20.665C229.258 20.8465 229.015 20.9485 228.761 20.9485H228.751ZM216.023 20.9485L209.67 20.9485C209.416 20.9485 209.172 20.8465 208.993 20.665C208.813 20.4835 208.712 20.2373 208.712 19.9806C208.712 19.7239 208.813 19.4777 208.993 19.2962C209.172 19.1147 209.416 19.0127 209.67 19.0127L216.032 19.0127C216.286 19.0127 216.53 19.1147 216.709 19.2962C216.889 19.4777 216.99 19.7239 216.99 19.9806C216.99 20.2373 216.889 20.4835 216.709 20.665C216.53 20.8465 216.286 20.9485 216.032 20.9485H216.023ZM203.294 20.9485H196.941C196.687 20.9485 196.444 20.8465 196.264 20.665C196.085 20.4835 195.984 20.2373 195.984 19.9806C195.984 19.7239 196.085 19.4777 196.264 19.2962C196.444 19.1147 196.687 19.0127 196.941 19.0127H203.304C203.558 19.0127 203.801 19.1147 203.981 19.2962C204.16 19.4777 204.261 19.7239 204.261 19.9806C204.261 20.2373 204.16 20.4835 203.981 20.665C203.801 20.8465 203.558 20.9485 203.304 20.9485H203.294ZM190.569 20.9485L184.187 20.9485C183.933 20.9485 183.69 20.8465 183.51 20.665C183.331 20.4835 183.23 20.2373 183.23 19.9806C183.23 19.7239 183.331 19.4777 183.51 19.2962C183.69 19.1147 183.933 19.0127 184.187 19.0127L190.569 19.0127C190.823 19.0127 191.066 19.1147 191.246 19.2962C191.425 19.4777 191.526 19.7239 191.526 19.9806C191.526 20.2373 191.425 20.4835 191.246 20.665C191.066 20.8465 190.823 20.9485 190.569 20.9485ZM177.841 20.9485H171.487C171.234 20.9485 170.99 20.8465 170.811 20.665C170.631 20.4835 170.53 20.2373 170.53 19.9806C170.53 19.7239 170.631 19.4777 170.811 19.2962C170.99 19.1147 171.234 19.0127 171.487 19.0127H177.85C178.104 19.0127 178.347 19.1147 178.527 19.2962C178.707 19.4777 178.807 19.7239 178.807 19.9806C178.807 20.2373 178.707 20.4835 178.527 20.665C178.347 20.8465 178.104 20.9485 177.85 20.9485H177.841ZM165.112 20.9485H158.753C158.499 20.9485 158.255 20.8465 158.076 20.665C157.896 20.4835 157.795 20.2373 157.795 19.9806C157.795 19.7239 157.896 19.4777 158.076 19.2962C158.255 19.1147 158.499 19.0127 158.753 19.0127H165.134C165.388 19.0127 165.632 19.1147 165.811 19.2962C165.991 19.4777 166.092 19.7239 166.092 19.9806C166.092 20.2373 165.991 20.4835 165.811 20.665C165.632 20.8465 165.388 20.9485 165.134 20.9485H165.112ZM152.387 20.9485H146.005C145.751 20.9485 145.508 20.8465 145.328 20.665C145.149 20.4835 145.048 20.2373 145.048 19.9806C145.048 19.7239 145.149 19.4777 145.328 19.2962C145.508 19.1147 145.751 19.0127 146.005 19.0127H152.387C152.641 19.0127 152.884 19.1147 153.064 19.2962C153.243 19.4777 153.344 19.7239 153.344 19.9806C153.344 20.2373 153.243 20.4835 153.064 20.665C152.884 20.8465 152.641 20.9485 152.387 20.9485ZM139.658 20.9485H133.305C133.051 20.9485 132.808 20.8465 132.628 20.665C132.449 20.4835 132.348 20.2373 132.348 19.9806C132.348 19.7239 132.449 19.4777 132.628 19.2962C132.808 19.1147 133.051 19.0127 133.305 19.0127H139.668C139.922 19.0127 140.165 19.1147 140.345 19.2962C140.524 19.4777 140.625 19.7239 140.625 19.9806C140.625 20.2373 140.524 20.4835 140.345 20.665C140.165 20.8465 139.922 20.9485 139.668 20.9485H139.658ZM126.933 20.9485H120.577C120.323 20.9485 120.08 20.8465 119.9 20.665C119.721 20.4835 119.62 20.2373 119.62 19.9806C119.62 19.7239 119.721 19.4777 119.9 19.2962C120.08 19.1147 120.323 19.0127 120.577 19.0127H126.943C127.197 19.0127 127.44 19.1147 127.62 19.2962C127.799 19.4777 127.9 19.7239 127.9 19.9806C127.9 20.2373 127.799 20.4835 127.62 20.665C127.44 20.8465 127.197 20.9485 126.943 20.9485H126.933ZM114.205 20.9485H107.852C107.598 20.9485 107.354 20.8465 107.175 20.665C106.995 20.4835 106.894 20.2373 106.894 19.9806C106.894 19.7239 106.995 19.4777 107.175 19.2962C107.354 19.1147 107.598 19.0127 107.852 19.0127H114.214C114.468 19.0127 114.712 19.1147 114.891 19.2962C115.071 19.4777 115.172 19.7239 115.172 19.9806C115.172 20.2373 115.071 20.4835 114.891 20.665C114.712 20.8465 114.468 20.9485 114.214 20.9485H114.205ZM101.476 20.9485L95.1233 20.9485C94.8694 20.9485 94.6259 20.8465 94.4464 20.665C94.2669 20.4835 94.166 20.2373 94.166 19.9806C94.166 19.7239 94.2669 19.4777 94.4464 19.2962C94.6259 19.1147 94.8694 19.0127 95.1233 19.0127L101.486 19.0127C101.74 19.0127 101.983 19.1147 102.163 19.2962C102.342 19.4777 102.443 19.7239 102.443 19.9806C102.443 20.2373 102.342 20.4835 102.163 20.665C101.983 20.8465 101.74 20.9485 101.486 20.9485H101.476ZM88.7511 20.9485H82.3948C82.141 20.9485 81.8975 20.8465 81.7179 20.665C81.5384 20.4835 81.4376 20.2373 81.4376 19.9806C81.4376 19.7239 81.5384 19.4777 81.7179 19.2962C81.8975 19.1147 82.141 19.0127 82.3948 19.0127H88.7606C89.0145 19.0127 89.258 19.1147 89.4375 19.2962C89.6171 19.4777 89.7179 19.7239 89.7179 19.9806C89.7179 20.2373 89.6171 20.4835 89.4375 20.665C89.258 20.8465 89.0145 20.9485 88.7606 20.9485H88.7511ZM76.0226 20.9485L69.6696 20.9485C69.4157 20.9485 69.1722 20.8465 68.9927 20.665C68.8132 20.4835 68.7123 20.2373 68.7123 19.9806C68.7123 19.7239 68.8132 19.4777 68.9927 19.2962C69.1722 19.1147 69.4157 19.0127 69.6696 19.0127L76.0322 19.0127C76.2861 19.0127 76.5296 19.1147 76.7091 19.2962C76.8886 19.4777 76.9895 19.7239 76.9895 19.9806C76.9895 20.2373 76.8886 20.4835 76.7091 20.665C76.5296 20.8465 76.2861 20.9485 76.0322 20.9485H76.0226ZM63.2942 20.9485H56.9412C56.6873 20.9485 56.4438 20.8465 56.2643 20.665C56.0847 20.4835 55.9839 20.2373 55.9839 19.9806C55.9839 19.7239 56.0847 19.4777 56.2643 19.2962C56.4438 19.1147 56.6873 19.0127 56.9412 19.0127H63.3038C63.5577 19.0127 63.8011 19.1147 63.9807 19.2962C64.1602 19.4777 64.261 19.7239 64.261 19.9806C64.261 20.2373 64.1602 20.4835 63.9807 20.665C63.8011 20.8465 63.5577 20.9485 63.3038 20.9485H63.2942Z" fill="black"/>
<path d="M391.049 20.9485H387.858C387.604 20.9485 387.361 20.8465 387.181 20.665C387.002 20.4835 386.901 20.2373 386.901 19.9806C386.901 19.7239 387.002 19.4777 387.181 19.2962C387.361 19.1147 387.604 19.0127 387.858 19.0127H391.049C391.303 19.0127 391.546 19.1147 391.726 19.2962C391.905 19.4777 392.006 19.7239 392.006 19.9806C392.006 20.2373 391.905 20.4835 391.726 20.665C391.546 20.8465 391.303 20.9485 391.049 20.9485Z" fill="black"/>
</g>
<defs>
<clipPath id="clip0_9_244">
<rect width="392" height="41" fill="white"/>
</clipPath>
</defs>
</svg>
