<svg width="19" height="16" viewBox="0 0 19 16" fill="none" xmlns="http://www.w3.org/2000/svg">
<g clip-path="url(#clip0_26_91)">
<path d="M12.8186 2.99377C12.8691 3.00852 12.9217 3.01591 12.9745 3.01567H12.9905C13.0436 3.01591 13.0963 3.00853 13.147 2.99377C13.2547 2.96229 13.3488 2.89922 13.4156 2.8138C13.4824 2.72838 13.5183 2.62509 13.5181 2.51908V0.833922C13.5185 0.768678 13.5051 0.704006 13.4788 0.643655C13.4524 0.583304 13.4135 0.528471 13.3645 0.482336C13.3154 0.4362 13.2571 0.39968 13.1929 0.374886C13.1287 0.350092 13.0599 0.337521 12.9905 0.337899H12.9745C12.9217 0.337608 12.8691 0.344876 12.8186 0.359454C12.7111 0.390964 12.6171 0.454032 12.5504 0.539416C12.4838 0.6248 12.448 0.728012 12.4482 0.833922V2.51908C12.4479 2.62502 12.4837 2.72828 12.5504 2.8137C12.617 2.89913 12.711 2.96223 12.8186 2.99377Z" fill="#707070"/>
<path d="M3.69096 0.337891H3.67968C3.38736 0.337891 3.15039 0.560683 3.15039 0.835511V2.51793C3.15039 2.79276 3.38736 3.01555 3.67968 3.01555H3.69096C3.98328 3.01555 4.22025 2.79276 4.22025 2.51793V0.835511C4.22025 0.560683 3.98328 0.337891 3.69096 0.337891Z" fill="#707070"/>
<path d="M1.0183 12.5606V4.83317H15.6794V8.21352C16.016 8.23432 16.3483 8.296 16.6681 8.39704V3.41285C16.6681 2.75133 16.0943 2.21106 15.3907 2.21106H13.9675V2.51901C13.9675 2.76282 13.8645 2.99664 13.6812 3.16909C13.4978 3.34154 13.2492 3.43853 12.9899 3.43874H12.9739C12.7147 3.43847 12.4662 3.34142 12.2831 3.16895C12.1 2.99647 11.9973 2.76268 11.9975 2.51901V2.21106H4.67845V2.51901C4.67788 2.76303 4.57441 2.99687 4.39073 3.16928C4.20705 3.34169 3.95815 3.43859 3.6986 3.43874H3.68247C3.55425 3.43856 3.42734 3.41462 3.30897 3.36829C3.19061 3.32195 3.08312 3.25414 2.99265 3.16871C2.90219 3.08329 2.83052 2.98194 2.78176 2.87046C2.73299 2.75898 2.70808 2.63955 2.70844 2.51901V2.21106H1.28083C0.577211 2.21106 0 2.75133 0 3.41285V12.2948C0 12.9564 0.577211 13.4976 1.28083 13.4976H11.7612C11.6175 13.1994 11.5171 12.8844 11.4627 12.5611L1.0183 12.5606Z" fill="#707070"/>
<path d="M4.31352 7.08306C4.3136 6.94222 4.28417 6.80275 4.22689 6.67261C4.16962 6.54246 4.08564 6.42421 3.97974 6.32459C3.87384 6.22498 3.7481 6.14596 3.60971 6.09204C3.47132 6.03813 3.32298 6.01038 3.17318 6.01038C3.02332 6.0103 2.87492 6.038 2.73646 6.09188C2.598 6.14576 2.47219 6.22477 2.36622 6.32439C2.26026 6.42401 2.17622 6.54229 2.11891 6.67247C2.0616 6.80265 2.03215 6.94217 2.03223 7.08306C2.03215 7.22395 2.0616 7.36347 2.11891 7.49365C2.17622 7.62383 2.26026 7.74211 2.36622 7.84173C2.47219 7.94135 2.598 8.02036 2.73646 8.07424C2.87492 8.12812 3.02332 8.15582 3.17318 8.15574C3.47567 8.15559 3.76572 8.04251 3.97956 7.84136C4.1934 7.64021 4.31352 7.36745 4.31352 7.08306Z" fill="#707070"/>
<path d="M7.75554 6.01025H5.47363V8.15562H7.75554V6.01025Z" fill="#707070"/>
<path d="M4.31316 9.23694H2.03125V11.3823H4.31316V9.23694Z" fill="#707070"/>
<path d="M7.75554 9.23694H5.47363V11.3823H7.75554V9.23694Z" fill="#707070"/>
<path d="M11.1979 9.23694H8.91602V11.3823H11.1979V9.23694Z" fill="#707070"/>
<path d="M11.1979 6.01025H8.91602V8.15562H11.1979V6.01025Z" fill="#707070"/>
<path d="M14.6403 6.01025H12.3584V8.15562H14.6403V6.01025Z" fill="#707070"/>
<path d="M15.4716 8.70361C13.5231 8.70361 11.9434 10.1887 11.9434 12.0208C11.9434 13.8528 13.5231 15.3379 15.4716 15.3379C17.4202 15.3379 18.9999 13.8527 18.9999 12.0208C18.9999 10.1888 17.4203 8.70361 15.4716 8.70361ZM15.4716 14.6123C13.9517 14.6123 12.7152 13.4498 12.7152 12.0208C12.7152 10.5918 13.9517 9.42923 15.4716 9.42923C16.9916 9.42923 18.2281 10.5918 18.2281 12.0208C18.2281 13.4498 16.9917 14.6123 15.4716 14.6123Z" fill="#707070"/>
<path d="M17.176 11.942H15.6354V10.2426C15.6338 10.1748 15.6041 10.1102 15.5526 10.0628C15.5011 10.0153 15.4318 9.98877 15.3597 9.98877C15.2875 9.98877 15.2183 10.0153 15.1667 10.0628C15.1152 10.1102 15.0855 10.1748 15.084 10.2426V12.4236C15.084 12.5668 15.1689 12.6674 15.4837 12.6674H17.1758C17.277 12.6657 17.3734 12.6267 17.4443 12.5589C17.5152 12.491 17.555 12.3996 17.555 12.3045C17.555 12.2094 17.5152 12.118 17.4443 12.0502C17.3734 11.9823 17.277 11.9433 17.1758 11.9416L17.176 11.942Z" fill="#707070"/>
</g>
<defs>
<clipPath id="clip0_26_91">
<rect width="19" height="15" fill="white" transform="translate(0 0.337891)"/>
</clipPath>
</defs>
</svg>
