<svg width="14" height="17" viewBox="0 0 14 17" fill="none" xmlns="http://www.w3.org/2000/svg">
<path d="M6.55588 3.0423e-08C5.69487 8.36788e-05 4.8423 0.172693 4.04686 0.507972C3.25142 0.843251 2.52868 1.33463 1.91991 1.95406C1.31114 2.5735 0.82826 3.30884 0.498841 4.11812C0.169421 4.9274 -8.22024e-05 5.79477 2.99061e-08 6.67069C2.99061e-08 10.3551 2.90538 15.3932 6.55588 16.8029C10.2076 15.3932 13.113 10.3551 13.113 6.67069C13.1131 5.79466 12.9436 4.92719 12.6141 4.11783C12.2846 3.30847 11.8016 2.57306 11.1927 1.95361C10.5838 1.33417 9.86088 0.842811 9.06529 0.507607C8.2697 0.172403 7.417 -8.36362e-05 6.55588 3.0423e-08ZM6.55588 11.3119C5.65359 11.3118 4.7716 11.0395 4.02144 10.5294C3.27127 10.0193 2.68661 9.29444 2.34141 8.44636C1.9962 7.59828 1.90594 6.66511 2.08205 5.76485C2.25815 4.86458 2.69271 4.03766 3.33077 3.38864C3.96883 2.73962 4.78174 2.29765 5.6667 2.11862C6.55167 1.93959 7.46894 2.03154 8.30253 2.38284C9.13613 2.73414 9.84861 3.32902 10.3499 4.09225C10.8512 4.85547 11.1187 5.75278 11.1187 6.67069C11.1187 7.28024 11.0007 7.88381 10.7714 8.44695C10.5421 9.01009 10.206 9.52176 9.78225 9.95274C9.35854 10.3837 8.85554 10.7256 8.30195 10.9588C7.74837 11.192 7.15505 11.312 6.55588 11.3119Z" fill="#707070"/>
</svg>
