<svg width="15" height="20" viewBox="0 0 15 20" fill="none" xmlns="http://www.w3.org/2000/svg">
<g clip-path="url(#clip0_26_87)">
<path d="M7.37382 19.3379C2.83176 19.3379 0.21027 17.8184 -0.0280479 14.9712C-0.238328 12.6167 1.23363 9.57779 4.02335 6.19667L5.08877 4.95099L3.26634 1.30978C3.22217 1.23271 3.20289 1.1444 3.21103 1.05644C3.21917 0.968474 3.25435 0.884964 3.31196 0.816873C3.36956 0.748781 3.4469 0.699285 3.53382 0.674875C3.62075 0.650466 3.71321 0.652284 3.79905 0.680092C4.73831 0.940178 5.28503 0.85805 5.62148 0.502142C5.68988 0.421916 5.78537 0.368177 5.89075 0.350609C5.99613 0.333041 6.10447 0.3528 6.19625 0.406321C6.65899 0.680643 7.18995 0.825703 7.7313 0.825703C8.27264 0.825703 8.8036 0.680643 9.26634 0.406321C9.37104 0.350913 9.4936 0.337066 9.60849 0.367663C9.72339 0.398261 9.82177 0.470943 9.88317 0.570585C10.0794 0.899115 10.528 1.07707 11.4953 0.844361C11.581 0.824709 11.6707 0.829355 11.7539 0.85776C11.837 0.886165 11.9101 0.937148 11.9645 1.00471C12.019 1.07228 12.0526 1.15362 12.0614 1.23918C12.0701 1.32474 12.0537 1.41097 12.014 1.48773L10.7103 3.93802L11.0327 3.82851C11.7938 3.63816 12.5965 3.68117 13.3318 3.95171C13.3899 3.97005 13.4435 3.99976 13.4894 4.03905C13.5353 4.07834 13.5726 4.12636 13.5988 4.18019C13.6251 4.23401 13.6398 4.2925 13.6421 4.35207C13.6444 4.41164 13.6342 4.47104 13.6121 4.52664C13.5709 4.63894 13.4859 4.73076 13.3756 4.78205C13.2652 4.83334 13.1386 4.83995 13.0234 4.80041C12.4051 4.59596 11.7351 4.59596 11.1168 4.80041H11.0187L11.6776 4.95099C12.0231 5.09167 12.3342 5.30226 12.5903 5.56889C12.8465 5.83551 13.0418 6.1521 13.1635 6.49782C13.2062 6.60885 13.2038 6.73161 13.1569 6.841C13.11 6.9504 13.0221 7.03818 12.9112 7.08643H12.729C12.6376 7.08484 12.5485 7.05837 12.4717 7.00999C12.3949 6.96162 12.3335 6.89328 12.2944 6.81266C12.2247 6.57886 12.1014 6.36364 11.9338 6.18337C11.7662 6.0031 11.5587 5.86252 11.3271 5.77231C11.1659 5.70203 10.9963 5.65145 10.8224 5.62174H10.5841L10.8785 5.97765C13.0234 8.7154 14.7757 11.7543 14.9299 14.1909C15.1682 17.353 12.9813 19.3379 7.37382 19.3379ZM7.37382 18.4344C12.7009 18.4344 14.1589 16.6412 14.0047 14.3278C13.8505 12.0144 12.028 8.85229 9.68691 6.00502L9.43457 5.69018L9.16821 5.82707C8.6725 6.03122 8.13504 6.12025 7.59812 6.08715C7.23703 6.06907 6.87941 6.00934 6.5327 5.9092L5.71961 5.60805L5.32709 6.04609C2.17289 9.6873 0.714943 12.7536 0.897186 14.8753C1.07943 16.9971 2.98597 18.4344 7.37382 18.4344ZM3.16821 17.1477C3.08065 17.168 2.98942 17.168 2.90186 17.1477C2.26137 16.8305 1.7625 16.2946 1.49999 15.6419C1.2918 15.0197 1.23892 14.358 1.34578 13.7118C1.35272 13.6523 1.37169 13.5947 1.40161 13.5425C1.43153 13.4902 1.47179 13.4443 1.52005 13.4073C1.56832 13.3704 1.62362 13.3432 1.68275 13.3273C1.74188 13.3114 1.80365 13.3072 1.86447 13.3148C1.985 13.3318 2.0938 13.3945 2.16729 13.4893C2.24077 13.5841 2.273 13.7034 2.25699 13.8213C2.17519 14.325 2.21357 14.8403 2.36915 15.3271C2.54044 15.7706 2.86864 16.1396 3.29438 16.3674C3.40015 16.4275 3.47724 16.526 3.50876 16.6415C3.54029 16.7569 3.52369 16.8799 3.4626 16.9834C3.38841 17.0715 3.28365 17.13 3.16821 17.1477ZM7.76634 5.19739L8.32709 2.9798C8.34029 2.92106 8.36537 2.86548 8.40086 2.81633C8.43635 2.76718 8.48154 2.72543 8.53377 2.69356C8.586 2.66168 8.64422 2.64031 8.70502 2.6307C8.76582 2.62109 8.82798 2.62343 8.88784 2.63759C9.00305 2.67251 9.10104 2.74765 9.1631 2.84865C9.22516 2.94966 9.24694 3.06944 9.22429 3.18514L8.77569 5.03312H8.91587L9.3084 4.82779L10.8224 1.96684H10.514C10.2234 1.94358 9.94132 1.85955 9.68691 1.72044L9.37849 1.47404L8.83177 1.67938C7.99613 1.91861 7.10016 1.85543 6.3084 1.50142L6.09812 1.39191C5.85562 1.57357 5.57195 1.69563 5.27102 1.74782H4.57008L6.11214 4.80041L6.43457 4.9373L5.97195 2.6239C5.95165 2.50593 5.9801 2.38491 6.05105 2.28739C6.12201 2.18988 6.22969 2.12382 6.35046 2.10372C6.40946 2.09187 6.4703 2.09174 6.52935 2.10334C6.58841 2.11495 6.64446 2.13804 6.69418 2.17126C6.7439 2.20447 6.78625 2.24713 6.81872 2.29667C6.85119 2.34622 6.87311 2.40164 6.88317 2.45964L7.4299 5.19739H7.71027H7.76634Z" fill="#707070"/>
<path d="M9.43482 14.0678L9.28061 14.1499C9.0461 14.2478 8.79254 14.2945 8.53762 14.2868C8.27561 14.3036 8.01312 14.2618 7.77017 14.1646C7.52722 14.0673 7.31024 13.9172 7.13575 13.7256C6.98511 13.5786 6.86177 13.4072 6.77126 13.2191H8.2993V12.4936H6.56098C6.55363 12.407 6.55363 12.32 6.56098 12.2335C6.55399 12.1332 6.55399 12.0326 6.56098 11.9323H8.2993V11.2068H6.78529C6.87448 11.0254 6.99279 10.859 7.13575 10.714C7.30819 10.5191 7.52446 10.3658 7.76765 10.2661C8.01085 10.1663 8.27437 10.1229 8.53762 10.1391C8.7677 10.1402 8.99567 10.1819 9.21052 10.2623L9.54696 9.55048C9.24792 9.41619 8.92284 9.34617 8.59369 9.34515C8.17903 9.32663 7.76597 9.40663 7.38994 9.5783C7.01391 9.74996 6.68616 10.0082 6.43482 10.3307C6.20767 10.5888 6.03177 10.8859 5.91612 11.2068H5.20117V11.9597H5.7479C5.74091 12.0645 5.74091 12.1697 5.7479 12.2745C5.74094 12.3565 5.74094 12.4389 5.7479 12.5209H5.20117V13.2464H5.88808C6.03003 13.646 6.25969 14.0104 6.56098 14.3142C6.81147 14.5789 7.11812 14.7872 7.45951 14.9243C7.80091 15.0614 8.16884 15.1241 8.53762 15.1081C8.91223 15.1089 9.28348 15.0392 9.63108 14.9028L9.43482 14.0678Z" fill="#707070"/>
</g>
<defs>
<clipPath id="clip0_26_87">
<rect width="15" height="19" fill="white" transform="translate(0 0.337891)"/>
</clipPath>
</defs>
</svg>
